<?xml version="1.0" encoding="utf-8"?>
<!-- Generator: Adobe Illustrator 27.6.1, SVG Export Plug-In . SVG Version: 6.00 Build 0)  -->
<svg version="1.1" id="Calque_1" xmlns="http://www.w3.org/2000/svg" xmlns:xlink="http://www.w3.org/1999/xlink" x="0px" y="0px"
	 viewBox="0 0 272.7 59.8" style="enable-background:new 0 0 272.7 59.8;" xml:space="preserve">
<style type="text/css">
	.st0{fill:#020203;}
</style>
<g>
	<path class="st0" d="M17.1,0v43.7H0V0H17.1z"/>
	<path class="st0" d="M17.1,49.6v10.1H0V49.6H17.1z"/>
	<path class="st0" d="M69.9,59.7H29V0H46v46.9h23.9V59.7z"/>
	<path class="st0" d="M93.8,11.9V23h28.9V35H93.8v12.8h32.3v11.9H76.7V0h49.3v11.9H93.8z"/>
	<path class="st0" d="M180.2,38.4h-9v21.3h-17V0h28.1c17,0,23.9,9.4,23.9,19.6c0,12.8-9.4,18-21,18h11.6l11.1,22.2H190L180.2,38.4z
		 M181.5,27.3c5.1,0,7.7-3.4,7.7-7.7s-2.6-7.7-7.7-7.7h-10.2v15.3H181.5z"/>
	<path class="st0" d="M272.7,29.9c0,20.9-9.5,29.9-31.5,29.9s-31.5-9-31.5-29.9S219.1,0,241.1,0S272.7,9,272.7,29.9z M254.8,29.9
		c0-12.4-4.1-17.8-13.6-17.8c-9.5,0-13.6,5.3-13.6,17.8s4.1,17.8,13.6,17.8S254.8,42.3,254.8,29.9z"/>
	<path class="st0" d="M132.2,47.7h15.9v12h-15.9V47.7z"/>
</g>
</svg>
