<?xml version="1.0" encoding="utf-8"?>
<!-- Generator: Adobe Illustrator 27.6.1, SVG Export Plug-In . SVG Version: 6.00 Build 0)  -->
<svg version="1.1" id="Calque_1" xmlns="http://www.w3.org/2000/svg" xmlns:xlink="http://www.w3.org/1999/xlink" x="0px" y="0px"
	 viewBox="0 0 238.9 59.8" style="enable-background:new 0 0 238.9 59.8;" xml:space="preserve">
<style type="text/css">
	.st0{fill:#020203;}
</style>
<g>
	<path class="st0" d="M17,0v43.7H0V0H17z"/>
	<path class="st0" d="M17,49.6v10.1H0V49.6H17z"/>
	<path class="st0" d="M69.9,59.7H29V0h17v46.9h23.9V59.7z"/>
	<path class="st0" d="M117.6,59.7H76.7V0h17v46.9h23.9L117.6,59.7L117.6,59.7z"/>
	<path class="st0" d="M158.9,48.6h-19.8l-2.6,11.1h-17L134,0h32.4l12.8,59.7h-17.9L158.9,48.6z M141.8,37.5h14.8L149.3,4L141.8,37.5
		z"/>
	<path class="st0" d="M211.2,38.4h-9v21.3h-17V0h28.1c17,0,23.9,9.4,23.9,19.6c0,9-4.4,15.7-15,18h5.6l11.1,22.2H221L211.2,38.4z
		 M212.4,27.3c5.1,0,7.7-3.4,7.7-7.7s-2.6-7.7-7.7-7.7h-10.2v15.3H212.4z"/>
</g>
</svg>
